<svg xmlns="http://www.w3.org/2000/svg" viewBox="0 0 964.45 362.25"><defs><style>.cls-1,.cls-3{fill:none;stroke-linecap:round;stroke-linejoin:round;stroke-width:15px;}.cls-1{stroke:#123f95;}.cls-2{fill:#003895;}.cls-3{stroke:#7d93ab;}.cls-4{fill:#7d93ab;}</style></defs><g id="Layer_2" data-name="Layer 2"><g id="Respira_confianza" data-name="Respira confianza"><path class="cls-1" d="M7.5,193V65.63H54.78a12.66,12.66,0,0,1,7.85,2.7c10.81,8.54,37.13,39.51-7.81,67.08L80.16,193"/><line class="cls-1" x1="54.82" y1="135.41" x2="7.5" y2="135.41"/><path class="cls-1" d="M104.52,158.22,158.31,131v-6.61c0-13.31-9.62-24.95-22.81-26.77A25.08,25.08,0,0,0,120.82,100a29.44,29.44,0,0,0-16.3,26.6Z"/><path class="cls-1" d="M104.52,158.22s-1.7,32.68,24.51,32.34,31.66-27.91,31.66-27.91"/><path class="cls-1" d="M237,114s-14.9-28.17-36.18-4.76c-7.81,8.58-2.66,22.86,6.45,28.19,4.5,2.63,9.8,3.44,14.84,4.75a28.85,28.85,0,0,1,21.35,23.56s6.49,20.43-23.82,24.86S189.29,164,189.29,164"/><path class="cls-1" d="M274.39,223.24l-2-103.14s0-20.09,27.58-20.09c27.92,0,27.91,17.7,27.91,17.7v58.13c-.07-.74,1.23,15.61-27.74,15.16-26.35-.41-25.69-11-26.71-18.31"/><path class="cls-1" d="M360.44,101.37v62a28.13,28.13,0,0,0,9.67,21.49A26.36,26.36,0,0,0,389,191c22.47-1,30.13-27.84,30.13-27.84"/><circle class="cls-2" cx="360.44" cy="68.18" r="12.77"/><path class="cls-3" d="M450.56,264.13v62a28.15,28.15,0,0,0,9.68,21.49,26.34,26.34,0,0,0,18.92,6.17c22.47-1,30.13-27.84,30.13-27.84"/><path class="cls-4" d="M437.8,230.93a12.76,12.76,0,0,1,13.26-12.75,12.76,12.76,0,1,1-13.26,12.75"/><path class="cls-1" d="M445.71,189.46V122.82s0-21.45,26.3-21.45,28.85,15.83,29.36,22.73"/><path class="cls-1" d="M528.69,128.69s4.85-29,28.09-28.68,31.4,9.7,31.4,22v67.41"/><path class="cls-1" d="M564.18,191s-30.64,4.81-34.21-22c0,0-4.34-22.72,58.21-39.32"/><path class="cls-3" d="M558.44,291.11s4.85-29,28.08-28.68,31.41,9.7,31.41,22v67.41"/><path class="cls-3" d="M593.93,353.45s-30.64,4.81-34.22-22c0,0-4.34-22.72,58.22-39.32"/><path class="cls-3" d="M888.18,289.2s4.85-29,28.09-28.68,31.4,9.7,31.4,22V350"/><path class="cls-3" d="M923.67,351.54s-30.64,4.81-34.21-22c0,0-4.34-22.72,58.21-39.32"/><path class="cls-3" d="M80.16,254.05s-2.73-30.61-36.33-30.81C7.5,223,7.5,254.05,7.5,254.05v58.7a43.15,43.15,0,0,0,10.06,28.07,33.38,33.38,0,0,0,26.27,12.3c28.86,0,36.15-29.11,36.33-38.81"/><path class="cls-3" d="M122.9,287.53v32.39a32.61,32.61,0,0,0,12,25.34,24.84,24.84,0,0,0,15.62,5.64,28.17,28.17,0,0,0,19.5-7.54c6.78-6.17,10.56-12.2,10.54-22.41,0-8.58,0-24,0-32.81-.09-15.33-12.08-28.23-27.41-28.79l-1.34,0a29,29,0,0,0-17.45,5.32A28.4,28.4,0,0,0,122.9,287.53Z"/><polyline class="cls-3" points="780.95 262.43 835.33 262.43 780.95 349.96 835.33 349.96"/><line class="cls-3" x1="332.61" y1="285.54" x2="388.44" y2="285.54"/><path class="cls-3" d="M343.16,350.9V245.71s3.06-22.47,28.6-22.47,27.91,19.75,27.91,25.2"/><path class="cls-3" d="M234.9,350.9V274.31s0-15,26.73-15,26.72,16.36,26.72,16.36V350.9"/><path class="cls-3" d="M672.71,354.75V278.16s0-15,26.73-15,26.72,16.36,26.72,16.36v75.23"/></g><g id="Nube"><path class="cls-1" d="M771.1,50.59c-47-13.56-76.56,5.59-85.35,33.83-.2.65-1.67,7.07-1.82,7.08,0,0-55.83,2.38-56.86,55.15s33.37,48.68,33.37,48.68H907.79a39.62,39.62,0,0,0,23-7.35c11.29-8,25.94-23.09,26.15-47.12.34-39.15-52.43-55.49-52.43-55.49s1.87-9.36-5.16-35.5c-3.63-13.51-13.79-24.79-25.61-32.43-16.86-10.9-38.93-12.73-57.84-6A75.65,75.65,0,0,0,788.6,28.72a83,83,0,0,0-10.47,12.51c-1.89,2.78-7,9.36-7,9.36"/><polyline class="cls-1" points="734.48 113.63 781.97 160.54 862.65 79.41"/></g></g></svg>